<?xml version="1.0" encoding="UTF-8"?>
<svg xmlns="http://www.w3.org/2000/svg" xmlns:xlink="http://www.w3.org/1999/xlink" width="2000" height="2000" viewBox="0 0 2000 2000">
<defs>
<radialGradient id="radial-pattern-0" gradientUnits="userSpaceOnUse" cx="0" cy="0" fx="0" fy="0" r="3059.46" gradientTransform="matrix(1, 0, 0, 1, 1000, 1000)">
<stop offset="0" stop-color="rgb(100%, 100%, 100%)" stop-opacity="1"/>
<stop offset="0.125" stop-color="rgb(100%, 100%, 100%)" stop-opacity="1"/>
<stop offset="0.152344" stop-color="rgb(99.934387%, 99.978638%, 99.995422%)" stop-opacity="1"/>
<stop offset="0.164062" stop-color="rgb(99.739075%, 99.916077%, 99.983215%)" stop-opacity="1"/>
<stop offset="0.1875" stop-color="rgb(99.491882%, 99.726868%, 99.813843%)" stop-opacity="1"/>
<stop offset="0.199219" stop-color="rgb(99.224854%, 99.440002%, 99.513245%)" stop-opacity="1"/>
<stop offset="0.210938" stop-color="rgb(98.928833%, 99.249268%, 99.360657%)" stop-opacity="1"/>
<stop offset="0.222656" stop-color="rgb(98.629761%, 99.002075%, 99.128723%)" stop-opacity="1"/>
<stop offset="0.234375" stop-color="rgb(98.419189%, 98.638916%, 98.699951%)" stop-opacity="1"/>
<stop offset="0.246094" stop-color="rgb(98.162842%, 98.310852%, 98.339844%)" stop-opacity="1"/>
<stop offset="0.269531" stop-color="rgb(97.862244%, 98.023987%, 98.052979%)" stop-opacity="1"/>
<stop offset="0.277344" stop-color="rgb(97.657776%, 97.767639%, 97.772217%)" stop-opacity="1"/>
<stop offset="0.285156" stop-color="rgb(97.363281%, 97.480774%, 97.4823%)" stop-opacity="1"/>
<stop offset="0.292969" stop-color="rgb(96.974182%, 97.163391%, 97.187805%)" stop-opacity="1"/>
<stop offset="0.300781" stop-color="rgb(96.661377%, 96.871948%, 96.899414%)" stop-opacity="1"/>
<stop offset="0.308594" stop-color="rgb(96.446228%, 96.609497%, 96.615601%)" stop-opacity="1"/>
<stop offset="0.316406" stop-color="rgb(96.243286%, 96.353149%, 96.334839%)" stop-opacity="1"/>
<stop offset="0.324219" stop-color="rgb(96.038818%, 96.095276%, 96.052551%)" stop-opacity="1"/>
<stop offset="0.332031" stop-color="rgb(95.748901%, 95.732117%, 95.655823%)" stop-opacity="1"/>
<stop offset="0.339844" stop-color="rgb(95.359802%, 95.243835%, 95.121765%)" stop-opacity="1"/>
<stop offset="0.347656" stop-color="rgb(95.027161%, 94.882202%, 94.744873%)" stop-opacity="1"/>
<stop offset="0.351562" stop-color="rgb(94.750977%, 94.682312%, 94.570923%)" stop-opacity="1"/>
<stop offset="0.355469" stop-color="rgb(94.459534%, 94.497681%, 94.424438%)" stop-opacity="1"/>
<stop offset="0.359375" stop-color="rgb(94.166565%, 94.313049%, 94.277954%)" stop-opacity="1"/>
<stop offset="0.363281" stop-color="rgb(93.89801%, 94.108582%, 94.070435%)" stop-opacity="1"/>
<stop offset="0.367188" stop-color="rgb(93.675232%, 93.867493%, 93.754578%)" stop-opacity="1"/>
<stop offset="0.371094" stop-color="rgb(93.473816%, 93.612671%, 93.391418%)" stop-opacity="1"/>
<stop offset="0.375" stop-color="rgb(93.270874%, 93.357849%, 93.026733%)" stop-opacity="1"/>
<stop offset="0.378906" stop-color="rgb(92.96875%, 92.982483%, 92.617798%)" stop-opacity="1"/>
<stop offset="0.386719" stop-color="rgb(92.565918%, 92.489624%, 92.211914%)" stop-opacity="1"/>
<stop offset="0.394531" stop-color="rgb(92.245483%, 92.134094%, 91.912842%)" stop-opacity="1"/>
<stop offset="0.398438" stop-color="rgb(91.97998%, 91.928101%, 91.63208%)" stop-opacity="1"/>
<stop offset="0.402344" stop-color="rgb(91.691589%, 91.740417%, 91.311646%)" stop-opacity="1"/>
<stop offset="0.40625" stop-color="rgb(91.400146%, 91.552734%, 90.991211%)" stop-opacity="1"/>
<stop offset="0.410156" stop-color="rgb(91.123962%, 91.339111%, 90.672302%)" stop-opacity="1"/>
<stop offset="0.414062" stop-color="rgb(90.892029%, 91.05072%, 90.362549%)" stop-opacity="1"/>
<stop offset="0.417969" stop-color="rgb(90.687561%, 90.715027%, 90.061951%)" stop-opacity="1"/>
<stop offset="0.421875" stop-color="rgb(90.483093%, 90.377808%, 89.758301%)" stop-opacity="1"/>
<stop offset="0.425781" stop-color="rgb(90.266418%, 90.052795%, 89.46228%)" stop-opacity="1"/>
<stop offset="0.429688" stop-color="rgb(90.003967%, 89.758301%, 89.18457%)" stop-opacity="1"/>
<stop offset="0.433594" stop-color="rgb(89.710999%, 89.489746%, 88.922119%)" stop-opacity="1"/>
<stop offset="0.4375" stop-color="rgb(89.41803%, 89.21814%, 88.658142%)" stop-opacity="1"/>
<stop offset="0.441406" stop-color="rgb(89.135742%, 88.954163%, 88.398743%)" stop-opacity="1"/>
<stop offset="0.445312" stop-color="rgb(88.801575%, 88.580322%, 88.009644%)" stop-opacity="1"/>
<stop offset="0.453125" stop-color="rgb(88.505554%, 88.220215%, 87.623596%)" stop-opacity="1"/>
<stop offset="0.457031" stop-color="rgb(88.293457%, 87.969971%, 87.358093%)" stop-opacity="1"/>
<stop offset="0.460938" stop-color="rgb(87.983704%, 87.646484%, 87.026978%)" stop-opacity="1"/>
<stop offset="0.464844" stop-color="rgb(87.594604%, 87.261963%, 86.643982%)" stop-opacity="1"/>
<stop offset="0.46875" stop-color="rgb(87.205505%, 86.878967%, 86.260986%)" stop-opacity="1"/>
<stop offset="0.472656" stop-color="rgb(86.820984%, 86.499023%, 85.881042%)" stop-opacity="1"/>
<stop offset="0.476562" stop-color="rgb(86.485291%, 86.134338%, 85.505676%)" stop-opacity="1"/>
<stop offset="0.480469" stop-color="rgb(86.192322%, 85.780334%, 85.13031%)" stop-opacity="1"/>
<stop offset="0.484375" stop-color="rgb(85.897827%, 85.429382%, 84.75647%)" stop-opacity="1"/>
<stop offset="0.488281" stop-color="rgb(85.603333%, 85.076904%, 84.384155%)" stop-opacity="1"/>
<stop offset="0.492188" stop-color="rgb(85.214233%, 84.703064%, 84.014893%)" stop-opacity="1"/>
<stop offset="0.496094" stop-color="rgb(84.735107%, 84.303284%, 83.644104%)" stop-opacity="1"/>
<stop offset="0.5" stop-color="rgb(84.257507%, 83.906555%, 83.274841%)" stop-opacity="1"/>
<stop offset="0.503906" stop-color="rgb(83.781433%, 83.511353%, 82.907104%)" stop-opacity="1"/>
<stop offset="0.507812" stop-color="rgb(83.396912%, 83.183289%, 82.562256%)" stop-opacity="1"/>
<stop offset="0.511719" stop-color="rgb(83.106995%, 82.925415%, 82.235718%)" stop-opacity="1"/>
<stop offset="0.515625" stop-color="rgb(82.820129%, 82.669067%, 81.910706%)" stop-opacity="1"/>
<stop offset="0.519531" stop-color="rgb(82.53479%, 82.415771%, 81.587219%)" stop-opacity="1"/>
<stop offset="0.523438" stop-color="rgb(82.16095%, 82.020569%, 81.178284%)" stop-opacity="1"/>
<stop offset="0.527344" stop-color="rgb(81.692505%, 81.474304%, 80.679321%)" stop-opacity="1"/>
<stop offset="0.53125" stop-color="rgb(81.214905%, 80.915833%, 80.174255%)" stop-opacity="1"/>
<stop offset="0.535156" stop-color="rgb(80.738831%, 80.360413%, 79.672241%)" stop-opacity="1"/>
<stop offset="0.539062" stop-color="rgb(80.302429%, 79.853821%, 79.190063%)" stop-opacity="1"/>
<stop offset="0.542969" stop-color="rgb(79.916382%, 79.403687%, 78.726196%)" stop-opacity="1"/>
<stop offset="0.546875" stop-color="rgb(79.537964%, 78.962708%, 78.266907%)" stop-opacity="1"/>
<stop offset="0.550781" stop-color="rgb(79.159546%, 78.52478%, 77.810669%)" stop-opacity="1"/>
<stop offset="0.554688" stop-color="rgb(78.747559%, 78.079224%, 77.357483%)" stop-opacity="1"/>
<stop offset="0.558594" stop-color="rgb(78.289795%, 77.624512%, 76.907349%)" stop-opacity="1"/>
<stop offset="0.5625" stop-color="rgb(77.822876%, 77.1698%, 76.460266%)" stop-opacity="1"/>
<stop offset="0.566406" stop-color="rgb(77.355957%, 76.716614%, 76.016235%)" stop-opacity="1"/>
<stop offset="0.570312" stop-color="rgb(76.89209%, 76.266479%, 75.575256%)" stop-opacity="1"/>
<stop offset="0.574219" stop-color="rgb(76.426697%, 75.817871%, 75.135803%)" stop-opacity="1"/>
<stop offset="0.578125" stop-color="rgb(75.964355%, 75.372314%, 74.699402%)" stop-opacity="1"/>
<stop offset="0.582031" stop-color="rgb(75.502014%, 74.928284%, 74.267578%)" stop-opacity="1"/>
<stop offset="0.585938" stop-color="rgb(75.041199%, 74.487305%, 73.83728%)" stop-opacity="1"/>
<stop offset="0.589844" stop-color="rgb(74.580383%, 74.047852%, 73.410034%)" stop-opacity="1"/>
<stop offset="0.59375" stop-color="rgb(74.121094%, 73.61145%, 72.984314%)" stop-opacity="1"/>
<stop offset="0.597656" stop-color="rgb(73.66333%, 73.176575%, 72.563171%)" stop-opacity="1"/>
<stop offset="0.601562" stop-color="rgb(73.179626%, 72.737122%, 72.120667%)" stop-opacity="1"/>
<stop offset="0.605469" stop-color="rgb(72.651672%, 72.290039%, 71.646118%)" stop-opacity="1"/>
<stop offset="0.609375" stop-color="rgb(72.105408%, 71.839905%, 71.159363%)" stop-opacity="1"/>
<stop offset="0.613281" stop-color="rgb(71.562195%, 71.392822%, 70.677185%)" stop-opacity="1"/>
<stop offset="0.617188" stop-color="rgb(71.043396%, 70.933533%, 70.188904%)" stop-opacity="1"/>
<stop offset="0.621094" stop-color="rgb(70.571899%, 70.446777%, 69.688416%)" stop-opacity="1"/>
<stop offset="0.625" stop-color="rgb(70.120239%, 69.947815%, 69.18335%)" stop-opacity="1"/>
<stop offset="0.628906" stop-color="rgb(69.673157%, 69.451904%, 68.682861%)" stop-opacity="1"/>
<stop offset="0.632812" stop-color="rgb(69.206238%, 68.939209%, 68.180847%)" stop-opacity="1"/>
<stop offset="0.636719" stop-color="rgb(68.695068%, 68.377686%, 67.669678%)" stop-opacity="1"/>
<stop offset="0.640625" stop-color="rgb(68.162537%, 67.796326%, 67.155457%)" stop-opacity="1"/>
<stop offset="0.644531" stop-color="rgb(67.631531%, 67.218018%, 66.645813%)" stop-opacity="1"/>
<stop offset="0.648438" stop-color="rgb(67.06543%, 66.636658%, 66.130066%)" stop-opacity="1"/>
<stop offset="0.652344" stop-color="rgb(66.413879%, 66.040039%, 65.583801%)" stop-opacity="1"/>
<stop offset="0.65625" stop-color="rgb(65.708923%, 65.440369%, 65.026855%)" stop-opacity="1"/>
<stop offset="0.660156" stop-color="rgb(65.008545%, 64.842224%, 64.474487%)" stop-opacity="1"/>
<stop offset="0.664062" stop-color="rgb(64.332581%, 64.248657%, 63.917542%)" stop-opacity="1"/>
<stop offset="0.667969" stop-color="rgb(63.719177%, 63.647461%, 63.33313%)" stop-opacity="1"/>
<stop offset="0.671875" stop-color="rgb(63.15155%, 63.044739%, 62.734985%)" stop-opacity="1"/>
<stop offset="0.675781" stop-color="rgb(62.583923%, 62.445068%, 62.139893%)" stop-opacity="1"/>
<stop offset="0.679688" stop-color="rgb(62.007141%, 61.859131%, 61.557007%)" stop-opacity="1"/>
<stop offset="0.683594" stop-color="rgb(61.390686%, 61.306763%, 60.993958%)" stop-opacity="1"/>
<stop offset="0.6875" stop-color="rgb(60.742188%, 60.780334%, 60.449219%)" stop-opacity="1"/>
<stop offset="0.691406" stop-color="rgb(60.095215%, 60.256958%, 59.907532%)" stop-opacity="1"/>
<stop offset="0.695312" stop-color="rgb(59.455872%, 59.729004%, 59.370422%)" stop-opacity="1"/>
<stop offset="0.699219" stop-color="rgb(58.839417%, 59.147644%, 58.830261%)" stop-opacity="1"/>
<stop offset="0.703125" stop-color="rgb(58.244324%, 58.532715%, 58.2901%)" stop-opacity="1"/>
<stop offset="0.707031" stop-color="rgb(57.650757%, 57.920837%, 57.752991%)" stop-opacity="1"/>
<stop offset="0.710938" stop-color="rgb(57.067871%, 57.321167%, 57.223511%)" stop-opacity="1"/>
<stop offset="0.714844" stop-color="rgb(56.52771%, 56.767273%, 56.707764%)" stop-opacity="1"/>
<stop offset="0.71875" stop-color="rgb(56.027222%, 56.254578%, 56.20575%)" stop-opacity="1"/>
<stop offset="0.722656" stop-color="rgb(55.526733%, 55.743408%, 55.705261%)" stop-opacity="1"/>
<stop offset="0.726562" stop-color="rgb(55.020142%, 55.229187%, 55.204773%)" stop-opacity="1"/>
<stop offset="0.730469" stop-color="rgb(54.362488%, 54.600525%, 54.629517%)" stop-opacity="1"/>
<stop offset="0.734375" stop-color="rgb(53.569031%, 53.866577%, 53.988647%)" stop-opacity="1"/>
<stop offset="0.738281" stop-color="rgb(52.781677%, 53.141785%, 53.353882%)" stop-opacity="1"/>
<stop offset="0.742188" stop-color="rgb(52.003479%, 52.426147%, 52.72522%)" stop-opacity="1"/>
<stop offset="0.746094" stop-color="rgb(51.248169%, 51.731873%, 52.088928%)" stop-opacity="1"/>
<stop offset="0.75" stop-color="rgb(50.512695%, 51.05896%, 51.44043%)" stop-opacity="1"/>
<stop offset="0.753906" stop-color="rgb(49.786377%, 50.395203%, 50.801086%)" stop-opacity="1"/>
<stop offset="0.757812" stop-color="rgb(49.064636%, 49.737549%, 50.166321%)" stop-opacity="1"/>
<stop offset="0.761719" stop-color="rgb(48.370361%, 49.038696%, 49.502563%)" stop-opacity="1"/>
<stop offset="0.765625" stop-color="rgb(47.702026%, 48.300171%, 48.809814%)" stop-opacity="1"/>
<stop offset="0.769531" stop-color="rgb(47.041321%, 47.566223%, 48.123169%)" stop-opacity="1"/>
<stop offset="0.773438" stop-color="rgb(46.385193%, 46.839905%, 47.441101%)" stop-opacity="1"/>
<stop offset="0.777344" stop-color="rgb(45.66803%, 46.115112%, 46.751404%)" stop-opacity="1"/>
<stop offset="0.78125" stop-color="rgb(44.87915%, 45.388794%, 46.047974%)" stop-opacity="1"/>
<stop offset="0.785156" stop-color="rgb(44.091797%, 44.670105%, 45.350647%)" stop-opacity="1"/>
<stop offset="0.789062" stop-color="rgb(43.310547%, 43.960571%, 44.662476%)" stop-opacity="1"/>
<stop offset="0.792969" stop-color="rgb(42.533875%, 43.197632%, 43.92395%)" stop-opacity="1"/>
<stop offset="0.796875" stop-color="rgb(41.758728%, 42.364502%, 43.12439%)" stop-opacity="1"/>
<stop offset="0.800781" stop-color="rgb(40.991211%, 41.529846%, 42.323303%)" stop-opacity="1"/>
<stop offset="0.804688" stop-color="rgb(40.229797%, 40.704346%, 41.52832%)" stop-opacity="1"/>
<stop offset="0.808594" stop-color="rgb(39.448547%, 39.907837%, 40.734863%)" stop-opacity="1"/>
<stop offset="0.8125" stop-color="rgb(38.63678%, 39.144897%, 39.938354%)" stop-opacity="1"/>
<stop offset="0.816406" stop-color="rgb(37.825012%, 38.397217%, 39.147949%)" stop-opacity="1"/>
<stop offset="0.820312" stop-color="rgb(37.0224%, 37.657166%, 38.366699%)" stop-opacity="1"/>
<stop offset="0.824219" stop-color="rgb(36.242676%, 36.895752%, 37.588501%)" stop-opacity="1"/>
<stop offset="0.828125" stop-color="rgb(35.488892%, 36.100769%, 36.808777%)" stop-opacity="1"/>
<stop offset="0.832031" stop-color="rgb(34.750366%, 35.30426%, 36.035156%)" stop-opacity="1"/>
<stop offset="0.835938" stop-color="rgb(34.017944%, 34.518433%, 35.270691%)" stop-opacity="1"/>
<stop offset="0.839844" stop-color="rgb(33.270264%, 33.717346%, 34.474182%)" stop-opacity="1"/>
<stop offset="0.84375" stop-color="rgb(32.496643%, 32.888794%, 33.627319%)" stop-opacity="1"/>
<stop offset="0.847656" stop-color="rgb(31.718445%, 32.05719%, 32.766724%)" stop-opacity="1"/>
<stop offset="0.851562" stop-color="rgb(30.947876%, 31.236267%, 31.919861%)" stop-opacity="1"/>
<stop offset="0.855469" stop-color="rgb(30.19104%, 30.429077%, 31.09436%)" stop-opacity="1"/>
<stop offset="0.859375" stop-color="rgb(29.452515%, 29.63562%, 30.299377%)" stop-opacity="1"/>
<stop offset="0.863281" stop-color="rgb(28.723145%, 28.85437%, 29.521179%)" stop-opacity="1"/>
<stop offset="0.867188" stop-color="rgb(28.001404%, 28.082275%, 28.752136%)" stop-opacity="1"/>
<stop offset="0.871094" stop-color="rgb(27.267456%, 27.301025%, 27.960205%)" stop-opacity="1"/>
<stop offset="0.875" stop-color="rgb(26.509094%, 26.490784%, 27.119446%)" stop-opacity="1"/>
<stop offset="0.878906" stop-color="rgb(25.740051%, 25.674438%, 26.263428%)" stop-opacity="1"/>
<stop offset="0.882812" stop-color="rgb(24.978638%, 24.867249%, 25.415039%)" stop-opacity="1"/>
<stop offset="0.886719" stop-color="rgb(24.212646%, 24.055481%, 24.552917%)" stop-opacity="1"/>
<stop offset="0.890625" stop-color="rgb(23.426819%, 23.219299%, 23.646545%)" stop-opacity="1"/>
<stop offset="0.894531" stop-color="rgb(22.63031%, 22.372437%, 22.720337%)" stop-opacity="1"/>
<stop offset="0.898438" stop-color="rgb(21.839905%, 21.533203%, 21.80481%)" stop-opacity="1"/>
<stop offset="0.902344" stop-color="rgb(21.057129%, 20.697021%, 20.903015%)" stop-opacity="1"/>
<stop offset="0.90625" stop-color="rgb(20.281982%, 19.85321%, 20.019531%)" stop-opacity="1"/>
<stop offset="0.910156" stop-color="rgb(19.515991%, 19.009399%, 19.14978%)" stop-opacity="1"/>
<stop offset="0.914062" stop-color="rgb(18.754578%, 18.17627%, 18.287659%)" stop-opacity="1"/>
<stop offset="0.917969" stop-color="rgb(17.993164%, 17.356873%, 17.434692%)" stop-opacity="1"/>
<stop offset="0.921875" stop-color="rgb(17.214966%, 16.555786%, 16.592407%)" stop-opacity="1"/>
<stop offset="0.925781" stop-color="rgb(16.430664%, 15.768433%, 15.757751%)" stop-opacity="1"/>
<stop offset="0.929688" stop-color="rgb(15.652466%, 14.988708%, 14.929199%)" stop-opacity="1"/>
<stop offset="0.933594" stop-color="rgb(14.884949%, 14.222717%, 14.115906%)" stop-opacity="1"/>
<stop offset="0.9375" stop-color="rgb(14.14032%, 13.494873%, 13.345337%)" stop-opacity="1"/>
<stop offset="0.941406" stop-color="rgb(13.414001%, 12.796021%, 12.606812%)" stop-opacity="1"/>
<stop offset="0.945312" stop-color="rgb(12.698364%, 12.104797%, 11.872864%)" stop-opacity="1"/>
<stop offset="0.949219" stop-color="rgb(12.010193%, 11.433411%, 11.16333%)" stop-opacity="1"/>
<stop offset="0.953125" stop-color="rgb(11.436462%, 10.850525%, 10.549927%)" stop-opacity="1"/>
<stop offset="0.957031" stop-color="rgb(10.952759%, 10.33783%, 10.012817%)" stop-opacity="1"/>
<stop offset="0.960938" stop-color="rgb(10.472107%, 9.829712%, 9.481812%)" stop-opacity="1"/>
<stop offset="0.964844" stop-color="rgb(9.991455%, 9.326172%, 8.952332%)" stop-opacity="1"/>
<stop offset="0.96875" stop-color="rgb(9.498596%, 8.843994%, 8.433533%)" stop-opacity="1"/>
<stop offset="0.972656" stop-color="rgb(8.998108%, 8.377075%, 7.922363%)" stop-opacity="1"/>
<stop offset="0.976562" stop-color="rgb(8.500671%, 7.911682%, 7.414246%)" stop-opacity="1"/>
<stop offset="0.980469" stop-color="rgb(8.013916%, 7.450867%, 6.910706%)" stop-opacity="1"/>
<stop offset="0.984375" stop-color="rgb(7.58667%, 7.038879%, 6.459045%)" stop-opacity="1"/>
<stop offset="0.988281" stop-color="rgb(7.214355%, 6.674194%, 6.057739%)" stop-opacity="1"/>
<stop offset="0.992188" stop-color="rgb(6.845093%, 6.309509%, 5.657959%)" stop-opacity="1"/>
<stop offset="0.996094" stop-color="rgb(6.478882%, 5.94635%, 5.259705%)" stop-opacity="1"/>
<stop offset="1" stop-color="rgb(6.295776%, 5.764771%, 5.06134%)" stop-opacity="1"/>
</radialGradient>
</defs>
<rect x="-200" y="-200" width="2400" height="2400" fill="url(#radial-pattern-0)"/>
<path fill-rule="nonzero" fill="rgb(6.765747%, 6.211853%, 5.557251%)" fill-opacity="1" d="M 883.300781 873.058594 C 882.890625 875.511719 882.8125 878.398438 881.886719 880.988281 C 880.113281 885.921875 877.886719 890.429688 872.230469 884.011719 C 871.019531 882.628906 869.042969 881.328125 867.292969 881.140625 C 861.394531 880.488281 857.875 878.601562 859.089844 871.621094 C 860.65625 862.628906 865.488281 855.550781 871.265625 855.441406 C 878.886719 855.28125 880.980469 860.859375 882.402344 866.871094 C 882.851562 868.769531 882.976562 870.738281 883.300781 873.058594 "/>
<path fill-rule="nonzero" fill="rgb(6.765747%, 6.211853%, 5.557251%)" fill-opacity="1" d="M 412.113281 1146.429688 C 410.476562 1149.160156 414.785156 1155.621094 406.894531 1155.851562 C 398.96875 1156.089844 393.777344 1151.011719 393.632812 1142.769531 C 393.503906 1135.300781 397.925781 1128.898438 403.222656 1128.890625 C 408.730469 1128.871094 411.960938 1135 412.113281 1146.429688 "/>
<path fill-rule="nonzero" fill="rgb(6.765747%, 6.211853%, 5.557251%)" fill-opacity="1" d="M 1136.070312 653.710938 C 1158.949219 635.609375 1183.230469 614.101562 1205.691406 594.539062 C 1205.929688 597.660156 1206.089844 599.808594 1206.25 601.949219 C 1192.53125 618.898438 1163.441406 653.351562 1153.550781 665.261719 C 1151.671875 667.511719 1148.339844 667.820312 1146.078125 665.960938 L 1136.03125 657.691406 C 1134.769531 656.648438 1134.789062 654.71875 1136.070312 653.710938 "/>
<path fill-rule="nonzero" fill="rgb(6.765747%, 6.211853%, 5.557251%)" fill-opacity="1" d="M 1181.539062 674.300781 C 1153.640625 683.050781 1121.578125 660.011719 1109.929688 622.828125 C 1098.289062 585.660156 1111.460938 548.449219 1139.371094 539.710938 C 1167.269531 530.960938 1199.328125 554 1210.96875 591.171875 C 1222.621094 628.339844 1209.441406 665.558594 1181.539062 674.300781 Z M 1220.640625 588.148438 C 1209.488281 552.570312 1181.070312 527.71875 1151.539062 527.71875 C 1146.351562 527.71875 1141.238281 528.511719 1136.339844 530.039062 C 1119.730469 535.238281 1106.921875 548.449219 1100.269531 567.230469 C 1093.988281 584.980469 1093.988281 605.808594 1100.269531 625.859375 C 1111.410156 661.441406 1139.828125 686.28125 1169.371094 686.28125 C 1174.550781 686.28125 1179.660156 685.5 1184.558594 683.960938 C 1201.179688 678.769531 1213.980469 665.558594 1220.628906 646.78125 C 1226.921875 629.03125 1226.921875 608.199219 1220.640625 588.148438 "/>
<path fill-rule="nonzero" fill="rgb(6.266785%, 5.734253%, 5.047607%)" fill-opacity="1" d="M 1612.761719 1181.441406 C 1606.628906 1251.449219 1584.019531 1315.671875 1543.03125 1373.078125 C 1539.789062 1377.628906 1530.179688 1387.648438 1528.761719 1386.808594 C 1529.328125 1386 1583.679688 1278.050781 1591.378906 1218.511719 C 1609.628906 1077.378906 1576.621094 952 1473.019531 849.660156 C 1466.921875 843.628906 1460.039062 838.390625 1454 832.058594 C 1463.351562 835.019531 1471.730469 839.800781 1479.320312 845.699219 C 1522.308594 879.089844 1553.070312 922.019531 1575.589844 971.101562 C 1606.25 1037.941406 1619.179688 1108.078125 1612.761719 1181.441406 Z M 1282.089844 1342.378906 C 1281.578125 1348.28125 1279.570312 1353.820312 1274.289062 1358.488281 C 1270.589844 1353.160156 1269.019531 1347.921875 1268.199219 1342.289062 C 1267.398438 1336.710938 1270.421875 1334.230469 1275.121094 1333.941406 C 1280.648438 1333.609375 1282.488281 1337.800781 1282.089844 1342.378906 Z M 1281.449219 1299.75 C 1278.058594 1300.460938 1277.101562 1298.050781 1276.128906 1295.679688 C 1273.578125 1289.46875 1271.238281 1283.171875 1268.460938 1277.078125 C 1266.789062 1273.410156 1267.328125 1272.011719 1271.519531 1272.140625 C 1278.5 1272.359375 1285.421875 1271.449219 1293.941406 1269.859375 C 1291.261719 1279.25 1288.769531 1287.238281 1286.738281 1295.339844 C 1285.960938 1298.460938 1284.019531 1299.21875 1281.449219 1299.75 Z M 1416.429688 1121.058594 C 1416.191406 1120.929688 1381.808594 1101.238281 1371.570312 1063.800781 C 1362.679688 1031.289062 1353.910156 998.730469 1345.128906 966.191406 C 1343.558594 960.371094 1348.199219 949.898438 1353.328125 947.589844 C 1357.269531 945.820312 1359.628906 949.210938 1362.199219 950.96875 C 1392.601562 971.761719 1413.601562 1000.210938 1428.558594 1033.421875 C 1438.199219 1054.828125 1444.371094 1077.269531 1447.441406 1100.550781 C 1447.589844 1101.671875 1447.820312 1102.769531 1448.019531 1103.878906 C 1448.050781 1104.160156 1448.140625 1104.449219 1448.109375 1104.71875 C 1447.320312 1111.460938 1422.390625 1124.328125 1416.429688 1121.058594 Z M 1429.269531 1143.738281 C 1429.558594 1140.441406 1431.980469 1139.058594 1435.179688 1138.898438 C 1438.738281 1139.160156 1439.929688 1141.261719 1439.710938 1144.601562 C 1439.480469 1148.199219 1437.179688 1149.539062 1434.058594 1149.421875 C 1430.648438 1149.289062 1428.980469 1146.929688 1429.269531 1143.738281 Z M 1404.828125 1185.75 C 1409.738281 1183.710938 1414.210938 1180.609375 1418.910156 1178.058594 C 1430.5 1171.761719 1438.859375 1174.011719 1445.839844 1185.109375 C 1446.820312 1186.679688 1447.039062 1188.199219 1446.761719 1190.621094 C 1442.78125 1212.980469 1436.429688 1235.371094 1426.71875 1256.71875 C 1410.789062 1291.730469 1388.871094 1321.859375 1356 1342.988281 C 1353.398438 1344.660156 1350.71875 1346.210938 1348 1347.691406 C 1322.160156 1361.691406 1315.679688 1359.828125 1300.25 1334.710938 C 1298.421875 1331.730469 1298.910156 1329.53125 1300.011719 1326.960938 C 1308.199219 1307.871094 1316.308594 1288.738281 1324.691406 1269.738281 C 1327.339844 1263.738281 1331.558594 1259.210938 1337.75 1256.050781 C 1354.128906 1247.679688 1366.199219 1234.378906 1373.550781 1217.941406 C 1380.25 1202.949219 1389.691406 1192.019531 1404.828125 1185.75 Z M 1378.371094 1122.648438 C 1387.75 1128.199219 1396.128906 1132.660156 1403.941406 1137.941406 C 1409.96875 1142.019531 1410.101562 1152.441406 1404.449219 1157.089844 C 1397.691406 1162.648438 1377.878906 1172.058594 1377.878906 1172.058594 C 1377.878906 1172.058594 1378.28125 1152.421875 1378.359375 1145.398438 C 1378.441406 1138.398438 1378.371094 1131.410156 1378.371094 1122.648438 Z M 1312.839844 932.75 C 1316.851562 933.46875 1317.328125 934.96875 1315.890625 938.351562 C 1313.730469 943.460938 1311.828125 948.679688 1309.570312 954.511719 C 1306.539062 949.550781 1306.550781 944.710938 1305.410156 940.230469 C 1303.320312 932.019531 1304.449219 931.238281 1312.839844 932.75 Z M 1353.128906 1147.628906 C 1352.871094 1201.710938 1313.441406 1256.578125 1275.410156 1256.5 C 1321.179688 1228.441406 1340.03125 1186.390625 1336.449219 1134.230469 C 1333.179688 1086.679688 1308.160156 1050.660156 1267.289062 1031.929688 C 1306.871094 1035.429688 1353.480469 1078.210938 1353.128906 1147.628906 Z M 1465.679688 1184.609375 C 1461.25 1218.191406 1452.71875 1250.628906 1437.210938 1280.96875 C 1437.390625 1281.5 1437.230469 1281.898438 1436.738281 1282.171875 C 1436.449219 1284.410156 1435.558594 1286.359375 1433.851562 1287.890625 C 1401.898438 1350.578125 1355.511719 1395.929688 1283.628906 1407.871094 C 1232.359375 1416.390625 1187.191406 1399.871094 1148.191406 1366.820312 C 1102.769531 1328.328125 1077.28125 1277.820312 1065.078125 1220.46875 C 1050.019531 1149.691406 1057.980469 1081.121094 1088.089844 1015.210938 C 1088.660156 1013.960938 1088.769531 1012.421875 1090.871094 1011.769531 C 1095.019531 1021.671875 1099.121094 1031.640625 1103.378906 1041.539062 C 1105.148438 1045.640625 1103.449219 1049.160156 1102.230469 1052.910156 C 1077.941406 1127.519531 1078.648438 1201.289062 1110.390625 1273.75 C 1125.078125 1307.261719 1146.199219 1336.261719 1174.839844 1359.320312 C 1237.308594 1409.621094 1318.488281 1406.269531 1377.238281 1351.410156 C 1397.238281 1332.738281 1412.609375 1310.691406 1425.878906 1287 C 1427.058594 1284.761719 1428.238281 1282.511719 1429.421875 1280.269531 C 1429.71875 1279.691406 1430.019531 1279.121094 1430.320312 1278.539062 C 1443.941406 1247.519531 1454.210938 1215.539062 1458.039062 1181.730469 C 1467.539062 1097.769531 1450.761719 1020.75 1395.519531 954.921875 C 1337.660156 885.96875 1248.191406 876.308594 1175.660156 929.988281 C 1173.398438 931.660156 1171.140625 933.320312 1168.46875 935.289062 C 1164.871094 929.648438 1164.179688 923.148438 1161.789062 917.328125 C 1160.011719 912.96875 1163.96875 912.101562 1166.328125 910.558594 C 1233.820312 866.609375 1310.679688 870.269531 1373.351562 920.878906 C 1420.460938 958.941406 1446.921875 1009.621094 1460.441406 1067.609375 C 1469.441406 1106.191406 1470.851562 1145.339844 1465.679688 1184.609375 Z M 989.808594 1176.089844 C 989.8125 1183.140625 989.988281 1190.191406 990.101562 1197.238281 C 990.3125 1210.621094 990.316406 1210.621094 982.136719 1224.589844 C 964.113281 1130.089844 994.609375 999.179688 1053.128906 919.589844 C 1056.609375 925.910156 1060.320312 930.921875 1055.371094 938.660156 C 1009.070312 1011 989.738281 1090.890625 989.808594 1176.089844 Z M 1135 1191.621094 C 1140.769531 1188.128906 1146.308594 1184.238281 1151.890625 1180.460938 C 1156.621094 1177.25 1159.800781 1179.019531 1162.078125 1183.539062 C 1162.960938 1185.289062 1163.539062 1187.191406 1164.191406 1189.039062 C 1176.371094 1223.289062 1197.671875 1249.148438 1232.148438 1262.851562 C 1238.980469 1265.558594 1243.421875 1271.738281 1246.808594 1276.949219 C 1253.449219 1287.179688 1257.378906 1299.171875 1262.378906 1310.46875 C 1262.820312 1311.46875 1262.820312 1312.660156 1262.839844 1312.789062 C 1263.300781 1317.441406 1261.359375 1320.269531 1259.371094 1322.988281 C 1253.398438 1331.171875 1247.148438 1339.148438 1241.371094 1347.460938 C 1238.011719 1352.308594 1234.929688 1352.949219 1229.519531 1350.089844 C 1195.941406 1332.390625 1171.960938 1305.539062 1154.570312 1272.359375 C 1142.890625 1250.050781 1135.441406 1226.28125 1131 1201.519531 C 1130.210938 1197.109375 1131 1194.050781 1135 1191.621094 Z M 1134.539062 1115.660156 C 1138.789062 1125.78125 1142.648438 1134.960938 1146.640625 1144.460938 C 1133.761719 1143.511719 1129.101562 1132.550781 1134.539062 1115.660156 Z M 1228.550781 1115.390625 C 1244.210938 1114.359375 1253.628906 1131.488281 1252.828125 1145.789062 C 1251.859375 1163.121094 1241.160156 1175.039062 1225.011719 1174.660156 C 1241.25 1155.660156 1240.511719 1135.800781 1228.550781 1115.390625 Z M 1205.890625 1043.171875 C 1198.171875 1021.609375 1190.71875 1000.730469 1183.171875 979.890625 C 1182.199219 977.199219 1182.488281 975.230469 1184.519531 973.058594 C 1194.230469 962.738281 1205.191406 953.96875 1216.839844 945.96875 C 1219.898438 943.859375 1221.011719 944.910156 1222.230469 947.878906 C 1232.03125 971.820312 1241.96875 995.699219 1251.820312 1019.621094 C 1253.539062 1023.78125 1252.578125 1027.339844 1247.769531 1027.738281 C 1232.53125 1029.03125 1218.941406 1034.699219 1205.890625 1043.171875 Z M 1154.320312 846.941406 C 1151.039062 841.121094 1152.691406 837.929688 1158.878906 834.769531 C 1222.570312 802.320312 1287.550781 798.878906 1353.78125 825.871094 C 1361.199219 828.890625 1365.621094 828.050781 1371.429688 822.878906 C 1395.648438 801.351562 1423.898438 789.46875 1456.671875 789.371094 C 1468.308594 789.339844 1479.558594 791.410156 1490.789062 795.019531 C 1488.339844 799.078125 1486.191406 802.558594 1480.839844 801.46875 C 1447.371094 794.671875 1418 804.648438 1391.078125 823.871094 C 1384.691406 828.441406 1378.609375 833.640625 1373.210938 839.320312 C 1369.121094 843.621094 1366.140625 844.570312 1360.429688 841.820312 C 1330.578125 827.441406 1298.890625 820.25 1265.78125 820.46875 C 1229.738281 820.71875 1195.558594 829.058594 1163.429688 845.71875 C 1161.101562 846.941406 1158.109375 853.628906 1154.320312 846.941406 Z M 1288.03125 747.289062 C 1342.558594 745.539062 1393.601562 759 1444.558594 781.441406 C 1438.308594 782.691406 1433.871094 783.230469 1429.640625 784.5 C 1420.578125 787.210938 1412.609375 785.550781 1403.761719 781.941406 C 1315.070312 745.78125 1142.730469 798.960938 1141.328125 799.539062 C 1157.050781 776.300781 1234.640625 748.988281 1288.03125 747.289062 Z M 1103.359375 752.421875 C 1129.460938 756.46875 1153.878906 760.25 1180.898438 764.441406 C 1158.660156 774.890625 1139.699219 786.421875 1121.320312 801.128906 C 1115.308594 784.828125 1109.570312 769.25 1103.359375 752.421875 Z M 1092.050781 717.890625 C 1089.75 710.988281 1087.351562 704.109375 1084.761719 696.550781 C 1097.128906 699.070312 1109.03125 701.800781 1121.039062 703.851562 C 1137.511719 706.671875 1154.109375 707.261719 1170.558594 703.910156 C 1175.789062 702.851562 1178.058594 704.230469 1179.691406 709.140625 C 1182.691406 718.140625 1186.28125 726.949219 1190 736.839844 C 1158.179688 731.839844 1127.699219 726.960938 1097.171875 722.351562 C 1094.03125 721.878906 1092.898438 720.460938 1092.050781 717.890625 Z M 1045.429688 593.839844 C 1037.410156 579.289062 1037.488281 579.359375 1047.300781 567.070312 C 1060.949219 549.980469 1078.851562 539.28125 1099.289062 532.578125 C 1109.429688 529.261719 1119.628906 526.210938 1129.679688 522.589844 C 1153.238281 514.121094 1175.121094 518.53125 1193.199219 535.300781 C 1225.730469 565.480469 1238.421875 603.011719 1226.941406 646.25 C 1214.398438 693.5 1166.089844 708.300781 1127.800781 678.121094 C 1090.679688 648.859375 1074.039062 587.601562 1100.910156 545.011719 C 1100.398438 544.320312 1099.878906 543.628906 1099.371094 542.941406 C 1073.960938 551.800781 1057.488281 570.308594 1045.429688 593.839844 Z M 1027.398438 564.398438 C 1017.460938 554.679688 1014.859375 543.878906 1018.128906 530.578125 C 1020.449219 521.160156 1020.148438 511.078125 1021.070312 500.761719 C 1051.421875 506.878906 1081.390625 512.929688 1111.800781 519.070312 C 1095 526.820312 1093.308594 526.761719 1076.148438 520.800781 C 1061.050781 515.558594 1045.648438 511.410156 1029.078125 509.261719 C 1030.308594 527.78125 1030.328125 546.019531 1027.398438 564.398438 Z M 1237.160156 745.070312 C 1225.421875 748.75 1225.660156 748.671875 1221.949219 737.910156 C 1217.480469 724.921875 1212.988281 711.910156 1207.660156 699.261719 C 1204.410156 691.539062 1205.441406 686.609375 1213.890625 683.441406 C 1221.570312 703.78125 1229.25 724.121094 1237.160156 745.070312 Z M 799.054688 707.320312 C 779.992188 719.191406 739.265625 750.441406 739.117188 749.578125 C 737.914062 742.679688 838.402344 643.21875 957.140625 637.898438 C 973.070312 637.191406 970.738281 634.859375 975.960938 653.621094 C 910.515625 646.71875 853.285156 673.53125 799.054688 707.320312 Z M 816.867188 745.160156 C 813.386719 751.378906 799.855469 778.441406 795.226562 786.988281 L 796.25 763.441406 L 763.4375 765.96875 C 781.050781 759.109375 798.667969 752.25 816.867188 745.160156 Z M 804.835938 720.910156 C 835.15625 716.390625 865.316406 713.609375 897.351562 712.800781 C 869.804688 739.78125 815.050781 786.71875 805.347656 794.820312 C 805.09375 795.03125 804.753906 794.699219 804.953125 794.441406 C 807.628906 790.898438 814.570312 782.351562 818.203125 778.148438 C 832.199219 761.96875 846.742188 746.269531 861.902344 729.46875 C 842.351562 726.539062 823.59375 723.71875 804.835938 720.910156 Z M 967.976562 828.398438 C 966.523438 832.28125 967.824219 837.511719 959.691406 835.429688 C 899.015625 819.878906 838.332031 821.101562 777.882812 837.058594 C 770.097656 839.121094 762.492188 841.839844 754.804688 844.261719 C 821.726562 813.171875 891.394531 809.238281 962.789062 821.28125 C 967.882812 822.140625 969.890625 823.289062 967.976562 828.398438 Z M 951.90625 901.359375 C 936.3125 894.269531 917.226562 882.359375 903.039062 872.449219 C 918.488281 879.410156 937.917969 889.449219 953.363281 896.421875 Z M 921.5625 1027.289062 C 921.375 1027.960938 920.695312 1028.351562 920.027344 1028.179688 L 887.9375 1020.128906 C 887.28125 1019.960938 886.851562 1019.328125 886.9375 1018.660156 L 886.941406 1018.628906 C 887.042969 1017.851562 887.800781 1017.328125 888.570312 1017.5 C 900.144531 1020.160156 910.113281 1022.839844 920.714844 1025.71875 C 921.382812 1025.898438 921.753906 1026.628906 921.5625 1027.289062 Z M 917.152344 1036.179688 C 916.964844 1036.839844 916.285156 1037.238281 915.617188 1037.070312 L 883.527344 1029.019531 C 882.871094 1028.851562 882.441406 1028.21875 882.527344 1027.550781 L 882.53125 1027.519531 C 882.632812 1026.738281 883.390625 1026.210938 884.160156 1026.390625 C 895.734375 1029.050781 905.703125 1031.730469 916.304688 1034.609375 C 916.972656 1034.789062 917.34375 1035.519531 917.152344 1036.179688 Z M 916.242188 1046.371094 C 916.054688 1047.03125 915.371094 1047.421875 914.707031 1047.261719 L 882.617188 1039.199219 C 881.960938 1039.039062 881.53125 1038.410156 881.617188 1037.738281 L 881.621094 1037.710938 C 881.722656 1036.929688 882.480469 1036.398438 883.25 1036.578125 C 894.820312 1039.230469 904.792969 1041.921875 915.390625 1044.800781 C 916.058594 1044.980469 916.429688 1045.699219 916.242188 1046.371094 Z M 915.050781 1055.570312 C 914.863281 1056.238281 914.183594 1056.628906 913.515625 1056.460938 L 867.15625 1045.089844 C 866.5 1044.929688 866.070312 1044.300781 866.15625 1043.628906 L 866.160156 1043.601562 C 866.261719 1042.808594 867.019531 1042.289062 867.789062 1042.46875 C 879.363281 1045.121094 903.601562 1051.121094 914.203125 1054 C 914.871094 1054.179688 915.242188 1054.910156 915.050781 1055.570312 Z M 913.582031 1065.109375 C 913.394531 1065.769531 912.714844 1066.160156 912.046875 1065.988281 L 855.164062 1052.128906 C 854.507812 1051.960938 854.078125 1051.328125 854.164062 1050.660156 L 854.164062 1050.628906 C 854.265625 1049.851562 855.027344 1049.320312 855.796875 1049.5 C 867.367188 1052.148438 902.132812 1060.660156 912.734375 1063.53125 C 913.402344 1063.71875 913.773438 1064.441406 913.582031 1065.109375 Z M 910.027344 1073.679688 C 909.839844 1074.339844 909.160156 1074.730469 908.492188 1074.570312 L 851.609375 1060.699219 C 850.953125 1060.539062 850.523438 1059.910156 850.609375 1059.230469 L 850.613281 1059.210938 C 850.710938 1058.421875 851.472656 1057.898438 852.242188 1058.070312 C 863.8125 1060.730469 898.578125 1069.230469 909.179688 1072.109375 C 909.847656 1072.289062 910.21875 1073.011719 910.027344 1073.679688 Z M 906.515625 1083.078125 C 906.328125 1083.75 905.648438 1084.140625 904.980469 1083.96875 L 848.097656 1070.101562 C 847.441406 1069.941406 847.011719 1069.308594 847.097656 1068.640625 L 847.101562 1068.609375 C 847.199219 1067.828125 847.960938 1067.300781 848.730469 1067.480469 C 860.300781 1070.128906 895.066406 1078.640625 905.667969 1081.511719 C 906.335938 1081.691406 906.707031 1082.421875 906.515625 1083.078125 Z M 902.148438 1091.789062 C 901.960938 1092.449219 901.28125 1092.839844 900.613281 1092.671875 L 843.730469 1078.808594 C 843.074219 1078.640625 842.644531 1078.011719 842.730469 1077.339844 L 842.734375 1077.308594 C 842.832031 1076.53125 843.59375 1076 844.363281 1076.179688 C 855.933594 1078.828125 890.699219 1087.339844 901.300781 1090.210938 C 901.96875 1090.398438 902.339844 1091.121094 902.148438 1091.789062 Z M 856.378906 1110.320312 C 860.425781 1115.71875 863.460938 1123.960938 866.089844 1139.738281 C 866.242188 1140.628906 864.84375 1140.898438 864.535156 1140.050781 C 861.179688 1130.820312 858.636719 1121.671875 855.089844 1111.171875 C 854.804688 1110.320312 855.84375 1109.609375 856.378906 1110.320312 Z M 887.539062 1167.128906 C 885.484375 1172.089844 882.847656 1168.179688 881.007812 1167.199219 C 863.78125 1158.089844 846.675781 1148.761719 828.789062 1139.101562 C 834.226562 1137.289062 837.953125 1139.621094 841.648438 1141.109375 C 855.90625 1146.851562 869.984375 1153.050781 884.292969 1158.660156 C 889.121094 1160.550781 889.125 1163.300781 887.539062 1167.128906 Z M 850.503906 1245.671875 C 847.847656 1249.101562 844.3125 1249.449219 840.800781 1246.960938 C 836.441406 1243.859375 832.273438 1240.5 827.96875 1237.328125 C 785.613281 1206.089844 743.246094 1174.878906 700.894531 1143.640625 C 699.664062 1142.738281 698.5625 1141.660156 697.402344 1140.671875 C 708.546875 1142.988281 716.957031 1150.070312 725.96875 1155.859375 C 755.445312 1174.800781 784.410156 1194.550781 814.121094 1213.109375 C 823.742188 1219.128906 833.496094 1225.078125 843.386719 1230.71875 C 845.808594 1232.109375 848.242188 1233.691406 850.164062 1235.679688 C 853.105469 1238.710938 853.019531 1242.421875 850.503906 1245.671875 Z M 791.265625 1232.96875 C 772.3125 1216.789062 753.195312 1201.488281 734.246094 1185.300781 C 734.765625 1184.691406 736.101562 1182.621094 736.621094 1182.011719 C 756.335938 1197.378906 775.410156 1213.519531 794.195312 1230.019531 C 793.433594 1230.808594 792.027344 1232.179688 791.265625 1232.96875 Z M 694.796875 1202.78125 C 685.25 1202.558594 687.429688 1193.078125 683.996094 1187.671875 C 693.335938 1197.648438 704.703125 1200.808594 717.875 1200.820312 C 710.179688 1201.53125 702.472656 1202.960938 694.796875 1202.78125 Z M 678.425781 1199.769531 C 670.570312 1178.449219 662.742188 1158.390625 656.570312 1132.21875 C 655.765625 1128.808594 655.136719 1125.359375 654.507812 1121.910156 C 654.265625 1120.558594 653.894531 1119.25 653.300781 1118.078125 C 649.097656 1109.78125 653.171875 1106.269531 660.996094 1104.371094 C 660.269531 1140.5 675.675781 1171.628906 686.386719 1204.109375 C 682.660156 1205.929688 680.03125 1204.128906 678.425781 1199.769531 Z M 644.421875 1142.390625 C 639.769531 1142.390625 635.980469 1137.941406 635.980469 1132.460938 C 635.980469 1126.988281 639.769531 1122.53125 644.421875 1122.53125 C 649.078125 1122.53125 652.863281 1126.988281 652.863281 1132.460938 C 652.863281 1137.941406 649.078125 1142.390625 644.421875 1142.390625 Z M 644.339844 1189.558594 C 638.203125 1173.421875 632.164062 1157.238281 626.089844 1141.078125 C 627.074219 1140.660156 628.058594 1140.25 629.039062 1139.839844 C 636.570312 1158.269531 644.097656 1176.710938 651.851562 1195.691406 C 646.746094 1195.839844 645.496094 1192.601562 644.339844 1189.558594 Z M 591.609375 1168.148438 C 579.59375 1180.101562 578.878906 1180.269531 560.847656 1174.148438 C 573.488281 1174.980469 578.726562 1167.058594 584.546875 1160.488281 C 610.414062 1131.261719 609.824219 1081.351562 583.527344 1055.460938 C 576.664062 1048.699219 570.925781 1046.128906 559.277344 1045.269531 C 573.582031 1056.25 580.3125 1070.351562 583 1086.28125 C 588.28125 1117.589844 581.773438 1145.5 558.289062 1168.351562 C 554.632812 1171.898438 551.527344 1172.691406 546.949219 1169.710938 C 572.886719 1143.738281 581.15625 1113.269531 572.085938 1078.109375 C 570.605469 1072.371094 568.289062 1066.929688 565.085938 1061.929688 C 558.25 1051.25 550.816406 1042.96875 536.054688 1042.320312 C 509.351562 1041.148438 482.75 1037.730469 456.101562 1035.28125 C 453.3125 1035.03125 450.175781 1035.5 448.269531 1033.03125 C 446.988281 1031.371094 445.277344 1029.230469 446.160156 1027 C 447.164062 1024.449219 449.589844 1026 451.378906 1026.148438 C 490.65625 1029.601562 529.644531 1035.488281 568.765625 1040.269531 C 581.421875 1041.808594 590.472656 1049.058594 598.03125 1058.558594 C 622.195312 1088.929688 619.105469 1140.789062 591.609375 1168.148438 Z M 529.613281 1083.488281 C 528.195312 1092.589844 521.367188 1096.679688 510.855469 1094.648438 C 479.996094 1088.691406 448.71875 1084.46875 418.617188 1075.300781 C 407.1875 1071.820312 396.839844 1064.789062 386 1059.378906 C 395.023438 1055.390625 403.890625 1055.328125 412.769531 1056.128906 C 446.691406 1059.191406 480.605469 1062.339844 514.519531 1065.46875 C 525.382812 1066.46875 531.179688 1073.421875 529.613281 1083.488281 Z M 524.035156 1134.171875 C 523 1139.21875 519.226562 1139.140625 515.507812 1138.328125 C 495.53125 1133.96875 475.578125 1129.511719 455.636719 1124.988281 C 453.070312 1124.398438 449.660156 1124.339844 450.191406 1120.121094 C 450.746094 1115.660156 453.972656 1115.988281 457.199219 1116 C 477.578125 1119.839844 497.964844 1123.640625 518.328125 1127.550781 C 521.8125 1128.210938 524.992188 1129.53125 524.035156 1134.171875 Z M 408.355469 1087.398438 C 407.839844 1089.53125 406 1090.488281 404.027344 1090.898438 C 399.699219 1091.78125 395.777344 1091.238281 392.492188 1087.769531 C 387.691406 1082.710938 385.390625 1076.648438 384.015625 1068.480469 C 392.074219 1073.828125 398.816406 1078.21875 405.4375 1082.769531 C 406.953125 1083.808594 408.925781 1085.03125 408.355469 1087.398438 Z M 387.613281 1041.039062 C 391.050781 1035.140625 395.671875 1030.558594 403.152344 1031.660156 C 410.648438 1032.75 413.324219 1038.851562 415.566406 1045.101562 C 416.039062 1046.421875 416.871094 1047.859375 414.910156 1048.511719 C 413.410156 1049.011719 412.210938 1048.25 411.539062 1046.769531 C 410.960938 1045.5 410.46875 1044.160156 409.761719 1042.960938 C 405.09375 1035.039062 398.765625 1034.480469 393.105469 1041.839844 C 390.070312 1045.78125 387.792969 1050.308594 384.289062 1056.019531 C 383.699219 1049.679688 385.195312 1045.191406 387.613281 1041.039062 Z M 497.496094 971.25 C 489.808594 987.140625 483.652344 1003.53125 478.957031 1020.441406 C 477.625 1025.230469 473.941406 1022.929688 471.3125 1022.628906 C 467.660156 1022.230469 469.117188 1019.800781 469.863281 1017.589844 C 475.148438 1001.941406 483.457031 987.769531 491.34375 973.390625 C 492.515625 971.25 494.28125 970.101562 497.496094 971.25 Z M 453.292969 1016.601562 C 465.007812 982.359375 480.039062 950.128906 510.59375 928.269531 C 537.535156 909 568.484375 919.410156 581.628906 951.71875 C 582.984375 955.050781 583.105469 959.339844 588.316406 955.421875 C 589.09375 954.828125 590.566406 954.730469 591.578125 954.96875 C 606.246094 958.511719 620.890625 962.140625 636.332031 965.941406 C 632.191406 970.949219 628.257812 971.089844 623.875 970.039062 C 617.320312 968.460938 610.765625 966.808594 604.125 965.691406 C 592.546875 963.730469 591.453125 964.128906 582.375 970.78125 C 578.441406 962.359375 574.789062 953.859375 569.386719 946.269531 C 553.285156 923.660156 531.304688 920.71875 510.054688 938.609375 C 487.589844 957.539062 475.175781 983.019531 464.238281 1009.429688 C 462.953125 1012.539062 461.550781 1015.648438 460.761719 1018.898438 C 459.78125 1022.949219 456.902344 1021.449219 454.761719 1021.128906 C 451.90625 1020.710938 452.617188 1018.578125 453.292969 1016.601562 Z M 599.519531 862.980469 C 578.242188 863.03125 558.402344 869.121094 539.140625 877.800781 C 556.773438 862.339844 576.03125 853.679688 599.519531 862.980469 Z M 637.808594 957.441406 C 626.75 959.21875 623.144531 953.660156 621.007812 944.960938 C 617.78125 931.808594 612.066406 919.550781 604.933594 908.011719 C 594.382812 890.929688 580.8125 877.921875 559.566406 875.378906 C 575.65625 872.261719 589.53125 876.359375 601.359375 887.179688 C 621.988281 906.058594 631.273438 930.789062 637.808594 957.441406 Z M 535.617188 1004.140625 C 531.746094 1008.191406 527.339844 1012.359375 525.246094 1017.339844 C 520.863281 1027.789062 514.0625 1029.671875 503.339844 1025.199219 C 512.703125 1007.910156 523.0625 991.648438 542.769531 984.789062 C 559.234375 979.070312 573.621094 986 582.617188 1002.609375 C 584.101562 1003.359375 584.277344 1004.480469 583.53125 1005.859375 C 582.765625 1005.300781 582.003906 1004.738281 581.238281 1004.179688 C 564.71875 983.640625 548.566406 990.609375 535.617188 1004.140625 Z M 574.769531 1011.070312 C 578.953125 1011.199219 582.949219 1012.328125 584.972656 1015.851562 C 586.921875 1019.25 582.464844 1020.871094 581.191406 1023.460938 C 577.117188 1031.769531 571.046875 1035.121094 561.53125 1032.25 C 556.296875 1030.671875 550.515625 1030.898438 543.96875 1030.199219 C 552.652344 1019.828125 560.632812 1010.609375 574.769531 1011.070312 Z M 813.898438 893.21875 C 815.105469 892.910156 816.324219 893.691406 816.542969 894.921875 C 816.546875 894.941406 816.550781 894.949219 816.550781 894.96875 C 816.746094 896.058594 816.070312 897.128906 815 897.421875 C 790.234375 904.148438 766.15625 910.859375 741.394531 917.589844 C 740.304688 917.890625 739.167969 917.289062 738.800781 916.21875 C 738.71875 915.988281 738.636719 915.75 738.554688 915.511719 C 738.144531 914.328125 738.835938 913.050781 740.046875 912.738281 C 765.765625 906.03125 788.257812 899.78125 813.898438 893.21875 Z M 807.464844 862.398438 C 803.019531 862.570312 801.410156 864.089844 802.324219 868.558594 C 803.160156 872.671875 803.273438 876.929688 804.144531 881.03125 C 805.207031 886.03125 801.609375 886.671875 798.433594 887.359375 C 793.601562 888.410156 795.824219 884.289062 795.304688 882.398438 C 794.265625 878.628906 793.691406 874.730469 792.730469 870.929688 C 791.121094 864.570312 786.949219 860.28125 780.53125 859.769531 C 774.644531 859.308594 770.816406 863.539062 768.15625 868.460938 C 766.71875 871.121094 764.601562 876.539062 763.355469 879.308594 C 761.78125 867.578125 774.164062 853.398438 788.355469 851.988281 C 802.527344 850.589844 815.320312 855.980469 828.441406 860.679688 C 821.449219 861.28125 814.46875 862.128906 807.464844 862.398438 Z M 912.089844 977 C 913.246094 977.550781 913.820312 978.871094 913.445312 980.101562 C 913.089844 981.261719 911.90625 981.761719 910.820312 981.210938 C 882.589844 967.070312 853.855469 954.910156 825.574219 940.929688 C 824.578125 940.429688 824.140625 939.25 824.574219 938.21875 C 825.242188 936.660156 827.089844 935.96875 828.621094 936.710938 C 856.695312 950.269531 884.007812 963.429688 912.089844 977 Z M 834.273438 928.761719 C 857.46875 940.21875 880.03125 951.351562 903.234375 962.820312 C 904.1875 963.289062 904.652344 964.378906 904.328125 965.390625 C 904.320312 965.410156 904.316406 965.421875 904.3125 965.441406 C 903.90625 966.699219 902.464844 967.289062 901.28125 966.691406 C 878.332031 954.960938 855.039062 944.769531 832.050781 933.160156 C 830.890625 932.578125 830.394531 931.191406 830.914062 930.011719 C 830.921875 930 830.929688 929.980469 830.9375 929.960938 C 831.5 928.691406 833.023438 928.140625 834.273438 928.761719 Z M 835.191406 919.609375 C 858.382812 931.070312 880.945312 942.210938 904.148438 953.671875 C 905.101562 954.140625 905.566406 955.238281 905.242188 956.238281 C 905.238281 956.261719 905.230469 956.28125 905.226562 956.289062 C 904.820312 957.550781 903.378906 958.148438 902.195312 957.539062 C 879.246094 945.808594 855.953125 935.621094 832.964844 924.019531 C 831.808594 923.429688 831.308594 922.050781 831.828125 920.871094 C 831.839844 920.851562 831.847656 920.828125 831.855469 920.808594 C 832.414062 919.539062 833.9375 918.988281 835.191406 919.609375 Z M 834.996094 912.160156 C 835.007812 912.140625 835.011719 912.121094 835.019531 912.101562 C 835.582031 910.828125 837.105469 910.28125 838.359375 910.898438 C 861.550781 922.359375 884.113281 933.488281 907.316406 944.960938 C 908.269531 945.429688 908.734375 946.53125 908.410156 947.53125 C 908.40625 947.550781 908.398438 947.570312 908.394531 947.578125 C 907.988281 948.839844 906.546875 949.429688 905.363281 948.828125 C 882.414062 937.101562 859.121094 926.910156 836.132812 915.308594 C 834.976562 914.71875 834.476562 913.339844 834.996094 912.160156 Z M 909.214844 936.851562 C 910.191406 937.339844 910.667969 938.460938 910.335938 939.5 C 910.332031 939.519531 910.324219 939.539062 910.320312 939.550781 C 909.90625 940.859375 908.425781 941.46875 907.210938 940.839844 C 883.660156 928.730469 859.757812 918.210938 836.164062 906.230469 C 834.980469 905.628906 834.46875 904.199219 835.003906 902.980469 C 835.011719 902.960938 835.019531 902.941406 835.027344 902.929688 C 835.601562 901.609375 837.164062 901.050781 838.449219 901.691406 C 862.25 913.519531 885.40625 925.011719 909.214844 936.851562 Z M 818.128906 961.511719 C 817.121094 961.039062 816.65625 959.859375 817.070312 958.828125 C 817.699219 957.238281 819.53125 956.511719 821.082031 957.21875 C 849.449219 970.148438 890.21875 988.578125 918.597656 1001.519531 C 919.765625 1002.050781 920.371094 1003.359375 920.019531 1004.589844 C 919.691406 1005.761719 918.519531 1006.28125 917.421875 1005.761719 C 888.882812 992.25 846.714844 974.859375 818.128906 961.511719 Z M 840 1008.390625 C 840.242188 1007.609375 840.644531 1006.859375 840.976562 1006.089844 C 843.390625 1000.488281 848.976562 986.828125 850.4375 985.808594 C 852.539062 984.320312 852.746094 988.148438 851.8125 990.339844 C 849.109375 996.710938 846.582031 1003.148438 843.96875 1009.71875 C 842.992188 1012.171875 839.214844 1010.910156 840 1008.390625 Z M 819.898438 905.710938 C 794.855469 911.980469 767.675781 919.941406 742.617188 926.21875 C 741.460938 926.511719 740.292969 925.800781 740.015625 924.640625 C 739.988281 924.53125 739.960938 924.421875 739.933594 924.308594 C 739.65625 923.160156 740.367188 922.011719 741.519531 921.730469 C 767.546875 915.460938 792.929688 907.558594 818.867188 901.421875 C 820.136719 901.121094 821.378906 902.019531 821.496094 903.320312 C 821.5 903.359375 821.503906 903.390625 821.507812 903.429688 C 821.605469 904.480469 820.925781 905.449219 819.898438 905.710938 Z M 821.1875 914.5 C 796.144531 920.769531 768.96875 928.730469 743.90625 935.019531 C 742.75 935.308594 741.582031 934.589844 741.304688 933.429688 C 741.277344 933.320312 741.253906 933.210938 741.226562 933.109375 C 740.949219 931.960938 741.65625 930.800781 742.808594 930.519531 C 768.835938 924.261719 794.21875 916.351562 820.15625 910.21875 C 821.425781 909.910156 822.667969 910.808594 822.789062 912.109375 C 822.792969 912.148438 822.796875 912.179688 822.800781 912.21875 C 822.894531 913.28125 822.214844 914.238281 821.1875 914.5 Z M 823.34375 923.699219 C 798.300781 929.96875 771.121094 937.929688 746.0625 944.210938 C 744.90625 944.511719 743.738281 943.789062 743.460938 942.628906 C 743.433594 942.519531 743.40625 942.410156 743.378906 942.300781 C 743.105469 941.148438 743.8125 940 744.964844 939.71875 C 770.992188 933.460938 796.371094 925.550781 822.3125 919.410156 C 823.582031 919.109375 824.824219 920.011719 824.945312 921.308594 C 824.945312 921.351562 824.949219 921.378906 824.953125 921.421875 C 825.050781 922.46875 824.371094 923.441406 823.34375 923.699219 Z M 823.046875 947.839844 C 823.714844 946.28125 825.5625 945.589844 827.09375 946.328125 C 855.167969 959.890625 882.476562 973.050781 910.5625 986.621094 C 911.71875 987.171875 912.296875 988.488281 911.917969 989.71875 C 911.558594 990.878906 910.378906 991.378906 909.292969 990.839844 C 881.0625 976.691406 852.328125 964.53125 824.046875 950.550781 C 823.050781 950.058594 822.613281 948.871094 823.046875 947.839844 Z M 747.25 952.710938 C 746.09375 952.988281 744.921875 952.28125 744.644531 951.121094 C 744.617188 951.011719 744.589844 950.898438 744.566406 950.800781 C 744.289062 949.640625 745.003906 948.488281 746.15625 948.210938 C 772.089844 941.980469 795.824219 934.660156 821.660156 928.558594 C 822.929688 928.261719 824.175781 929.160156 824.296875 930.460938 C 824.296875 930.488281 824.300781 930.53125 824.304688 930.570312 C 824.402344 931.621094 823.722656 932.589844 822.695312 932.839844 C 797.730469 939.089844 772.214844 946.449219 747.25 952.710938 Z M 815.464844 942.859375 C 793.0625 948.640625 770.160156 955.449219 747.757812 961.238281 C 746.71875 961.511719 745.667969 960.851562 745.417969 959.78125 C 745.394531 959.679688 745.371094 959.578125 745.347656 959.480469 C 745.101562 958.421875 745.742188 957.351562 746.777344 957.089844 C 770.050781 951.320312 791.355469 944.550781 814.539062 938.910156 C 815.679688 938.628906 816.796875 939.460938 816.902344 940.648438 C 816.90625 940.691406 816.90625 940.71875 816.910156 940.761719 C 816.996094 941.730469 816.386719 942.621094 815.464844 942.859375 Z M 814.796875 953.238281 C 793.242188 958.660156 771.214844 965.050781 749.660156 970.480469 C 748.660156 970.730469 747.648438 970.109375 747.410156 969.101562 C 747.386719 969.011719 747.363281 968.921875 747.339844 968.820312 C 747.101562 967.820312 747.71875 966.820312 748.714844 966.578125 C 771.105469 961.171875 791.597656 954.808594 813.902344 949.519531 C 815 949.261719 816.074219 950.039062 816.175781 951.160156 C 816.179688 951.199219 816.183594 951.230469 816.1875 951.261719 C 816.269531 952.171875 815.683594 953.011719 814.796875 953.238281 Z M 748.679688 976.570312 C 770.621094 971.589844 790.695312 965.730469 812.554688 960.859375 C 813.625 960.621094 814.679688 961.339844 814.78125 962.378906 C 814.785156 962.410156 814.789062 962.441406 814.792969 962.46875 C 814.875 963.320312 814.300781 964.089844 813.429688 964.300781 C 792.316406 969.289062 770.730469 975.179688 749.609375 980.179688 C 748.632812 980.410156 747.640625 979.839844 747.402344 978.910156 C 747.382812 978.820312 747.359375 978.730469 747.339844 978.640625 C 747.101562 977.71875 747.707031 976.789062 748.679688 976.570312 Z M 746.539062 988.769531 C 746.515625 988.691406 746.492188 988.601562 746.472656 988.511719 C 746.230469 987.570312 746.847656 986.628906 747.847656 986.410156 C 770.351562 981.371094 790.941406 975.449219 813.355469 970.53125 C 814.457031 970.289062 815.539062 971.019531 815.644531 972.070312 C 815.648438 972.101562 815.652344 972.128906 815.652344 972.160156 C 815.738281 973.019531 815.148438 973.800781 814.257812 974.011719 C 792.601562 979.058594 770.464844 985.011719 748.804688 990.058594 C 747.800781 990.300781 746.78125 989.71875 746.539062 988.769531 Z M 760.191406 1033.710938 L 743.21875 1034.578125 C 742.1875 1034.628906 741.324219 1033.808594 741.324219 1032.78125 C 741.324219 1031.820312 742.070312 1031.03125 743.027344 1030.980469 L 759.988281 1030.03125 C 760.929688 1029.980469 761.75 1030.648438 761.878906 1031.578125 L 761.886719 1031.660156 C 762.03125 1032.710938 761.246094 1033.648438 760.191406 1033.710938 Z M 760.558594 1041.769531 L 743.585938 1042.640625 C 742.554688 1042.699219 741.691406 1041.871094 741.691406 1040.839844 C 741.691406 1039.878906 742.4375 1039.089844 743.394531 1039.039062 L 760.355469 1038.089844 C 761.296875 1038.039062 762.117188 1038.71875 762.242188 1039.648438 L 762.253906 1039.71875 C 762.398438 1040.769531 761.613281 1041.71875 760.558594 1041.769531 Z M 760.558594 1059.558594 L 743.585938 1060.429688 C 742.554688 1060.480469 741.691406 1059.660156 741.691406 1058.628906 C 741.691406 1057.671875 742.4375 1056.878906 743.394531 1056.820312 L 760.355469 1055.878906 C 761.296875 1055.828125 762.117188 1056.5 762.242188 1057.429688 L 762.253906 1057.511719 C 762.398438 1058.558594 761.613281 1059.5 760.558594 1059.558594 Z M 760.558594 1050.199219 L 743.585938 1051.070312 C 742.554688 1051.121094 741.691406 1050.300781 741.691406 1049.269531 C 741.691406 1048.308594 742.4375 1047.519531 743.394531 1047.460938 L 760.355469 1046.519531 C 761.296875 1046.460938 762.117188 1047.140625 762.242188 1048.070312 L 762.253906 1048.148438 C 762.398438 1049.199219 761.613281 1050.140625 760.558594 1050.199219 Z M 689.746094 985.980469 C 699.726562 978.460938 708.6875 975.011719 718.683594 978.710938 C 735.355469 984.871094 737.652344 999.628906 738.320312 1015.660156 C 727.125 998.660156 713.21875 986.101562 689.746094 985.980469 Z M 729.378906 1040.179688 C 726.984375 1025.871094 717.0625 1016.511719 705.945312 1016.339844 C 693.8125 1016.148438 678.480469 1028.089844 675.402344 1040.171875 C 675.09375 1041.378906 675.996094 1043.410156 673.898438 1043.378906 C 664.859375 1043.21875 662.691406 1050.71875 659.457031 1056.578125 C 650.175781 1073.371094 645.285156 1091.761719 640.625 1111.679688 C 639.261719 1107.230469 641.59375 1095.269531 642.273438 1092.261719 C 647.648438 1068.511719 658.59375 1047.300781 675.523438 1029.46875 C 679.027344 1025.78125 682.71875 1022.390625 686.78125 1019.441406 C 690.488281 1016.738281 694.589844 1014.589844 698.988281 1013.300781 C 712.472656 1009.339844 724.730469 1013.699219 730.953125 1028.238281 C 735.535156 1038.960938 735.292969 1049.96875 734.992188 1060.988281 C 734.589844 1075.75 732.296875 1090.421875 728.03125 1104.558594 C 722.273438 1123.671875 717.640625 1129.679688 708.203125 1138.390625 C 710.058594 1133.460938 735.058594 1087.710938 729.378906 1040.179688 Z M 715.460938 1045.691406 C 713.296875 1033.488281 709.207031 1029.570312 694.035156 1027.851562 C 704.734375 1023.710938 714.46875 1025.808594 717.242188 1036.609375 C 724.1875 1063.679688 713.324219 1101.601562 713.296875 1100.53125 C 713.246094 1098.789062 718.539062 1063.03125 715.460938 1045.691406 Z M 659.851562 1085.46875 C 659.519531 1075.488281 663.070312 1066.53125 667.042969 1057.710938 C 667.855469 1055.898438 669.246094 1053.800781 671.386719 1055.578125 C 673.148438 1057.050781 662.453125 1076.441406 659.851562 1085.46875 Z M 667.410156 1117.621094 C 669.273438 1123.628906 670.222656 1123.800781 674.964844 1118.878906 C 675.199219 1125 674.960938 1125.441406 667.480469 1132.230469 C 664.667969 1125.988281 663.019531 1119.730469 663.503906 1113.019531 C 663.75 1109.578125 665.445312 1107.199219 669.058594 1106.738281 C 672.589844 1106.300781 676.980469 1111.679688 678.054688 1114.011719 C 677.722656 1113.648438 672.097656 1107.46875 668.335938 1110.589844 C 666.128906 1112.421875 666.632812 1115.101562 667.410156 1117.621094 Z M 700.777344 1174.871094 C 694.136719 1165.019531 694.519531 1162.738281 693.316406 1153.878906 C 702.664062 1161.671875 700.878906 1171.699219 700.777344 1174.871094 Z M 681.144531 1126.199219 C 681.992188 1114.910156 682.234375 1103.589844 690.71875 1095.050781 C 687.527344 1105.429688 684.335938 1115.820312 681.144531 1126.199219 Z M 687.066406 1130.199219 C 681.328125 1145.429688 689.847656 1171.820312 697.085938 1177.441406 C 702.640625 1181.761719 704.742188 1180.96875 706.453125 1174.210938 C 707.179688 1171.339844 707.738281 1168.480469 708.40625 1165.429688 C 710.480469 1168.28125 711.648438 1183.609375 707.957031 1185.261719 C 703.902344 1187.070312 698.265625 1184.621094 694.785156 1181.699219 C 682.257812 1171.191406 678.183594 1143.101562 687.066406 1130.199219 Z M 695.296875 1071.109375 C 689.71875 1069.339844 685.484375 1068.671875 680.613281 1071.019531 C 677.140625 1072.699219 674.308594 1075.449219 672.320312 1078.75 L 670.179688 1082.320312 C 669.476562 1083.480469 667.878906 1083.699219 666.894531 1082.761719 C 666.128906 1082.03125 666.015625 1080.851562 666.625 1079.988281 L 668.507812 1077.339844 C 675.390625 1067.660156 688.109375 1063.78125 699.023438 1068.46875 C 699.359375 1068.609375 699.691406 1068.761719 700.019531 1068.921875 C 708.472656 1073.421875 711.632812 1079.820312 707.40625 1090.519531 C 709.628906 1080.589844 704.113281 1073.898438 695.296875 1071.109375 Z M 752.992188 1156.179688 C 759.71875 1143.699219 761.753906 1130.898438 755.492188 1117.539062 C 753.730469 1113.769531 751.140625 1110.570312 747.117188 1109.941406 C 742.523438 1109.21875 741.328125 1113.679688 739.6875 1116.769531 C 736.109375 1123.5 731.363281 1129.371094 729.335938 1136.648438 C 728.609375 1139.25 729.074219 1141.960938 730.140625 1144.441406 C 730.382812 1145.011719 730.527344 1146.109375 729.53125 1146.328125 C 728.207031 1146.628906 726.800781 1145.328125 725.816406 1143.25 C 724.460938 1140.359375 724.476562 1137.011719 725.664062 1134.050781 C 730.007812 1123.28125 736.050781 1114.171875 743.132812 1104.609375 C 745.929688 1100.828125 748.898438 1102.140625 751.886719 1104.140625 C 758.960938 1108.859375 761.996094 1116.070312 763.222656 1124 C 764.949219 1135.171875 762.871094 1158.988281 754.371094 1161.058594 C 753.175781 1161.351562 751.867188 1161 751.132812 1160.019531 C 749.953125 1158.441406 752.25 1157.558594 752.992188 1156.179688 Z M 741.945312 1125.441406 C 742.136719 1123.859375 743.457031 1123.269531 744.792969 1122.699219 C 746.871094 1121.820312 749.28125 1123.148438 749.519531 1125.390625 C 749.519531 1125.410156 749.523438 1125.429688 749.523438 1125.441406 C 749.863281 1128.890625 741.714844 1127.320312 741.945312 1125.441406 Z M 734.117188 1138.699219 C 735.757812 1135.351562 738.449219 1135.949219 743.636719 1135.511719 C 745.464844 1135.351562 747.304688 1133.320312 749.527344 1131.898438 C 751.210938 1137.679688 745.46875 1138.019531 743.59375 1140.859375 C 747.628906 1143.988281 750.90625 1142.21875 755.179688 1137.398438 C 753.226562 1146.089844 750.753906 1152.648438 744.675781 1154.101562 C 739.980469 1155.21875 734.527344 1151.71875 730.425781 1147.171875 C 734.480469 1146.671875 737.757812 1149.308594 742.660156 1147.410156 C 741.25 1146.699219 732.308594 1142.398438 734.117188 1138.699219 Z M 768.828125 1082.121094 C 768.976562 1062.941406 773.304688 1016.601562 774.605469 1010.660156 C 774.816406 1009.699219 775.660156 1009.019531 776.636719 1009.019531 C 778.535156 1009.019531 779.738281 1010.769531 779.445312 1012.648438 C 774.972656 1041.269531 773.90625 1074.621094 773.703125 1082.191406 C 773.667969 1083.511719 772.585938 1084.558594 771.265625 1084.558594 C 769.914062 1084.558594 768.816406 1083.46875 768.828125 1082.121094 Z M 773.671875 1117.109375 C 771.90625 1111.21875 768.980469 1106.058594 764.558594 1100.671875 C 770.785156 1101 772.949219 1105.160156 774.90625 1108.71875 C 785.46875 1127.890625 784.878906 1147.371094 775.953125 1167.011719 C 774.605469 1169.980469 773.371094 1170.789062 770.277344 1169.328125 C 766.484375 1167.539062 769.234375 1165.910156 769.945312 1164.078125 C 775.90625 1148.808594 778.519531 1133.308594 773.671875 1117.109375 Z M 795.5625 1019.210938 C 795.613281 1021.851562 791.644531 1022.148438 791.390625 1019.53125 C 791.3125 1018.71875 791.390625 1017.871094 791.398438 1017.03125 C 791.449219 1010.929688 791.289062 996.179688 792.238281 994.660156 C 793.601562 992.480469 795.277344 995.921875 795.269531 998.308594 C 795.246094 1005.230469 795.417969 1012.140625 795.5625 1019.210938 Z M 751.15625 998.859375 C 750.203125 999.089844 749.238281 998.539062 749.007812 997.648438 C 748.984375 997.558594 748.964844 997.480469 748.941406 997.398438 C 748.714844 996.511719 749.300781 995.628906 750.246094 995.421875 C 771.597656 990.671875 791.136719 985.089844 812.402344 980.449219 C 813.449219 980.21875 814.476562 980.910156 814.574219 981.910156 C 814.578125 981.929688 814.582031 981.960938 814.585938 981.988281 C 814.664062 982.800781 814.105469 983.539062 813.261719 983.730469 C 792.710938 988.488281 771.707031 994.101562 751.15625 998.859375 Z M 833.683594 1170.28125 C 835.199219 1179.359375 834.476562 1188.761719 837.8125 1189.25 C 841.992188 1189.871094 842.246094 1185.710938 842.679688 1182.871094 C 843.53125 1177.261719 845.882812 1171.441406 848.070312 1166.769531 C 849.0625 1174.921875 849.703125 1184.191406 847.394531 1192 C 847.15625 1192.808594 826.351562 1193.390625 816.628906 1194.070312 C 831.726562 1183.191406 832.796875 1175.179688 833.683594 1170.28125 Z M 808.683594 1034.859375 C 800.527344 1053.011719 799.804688 1072.410156 803.0625 1092.160156 C 803.355469 1093.960938 803.730469 1095.820312 803.878906 1097.699219 C 804.117188 1100.699219 799.601562 1101.109375 799.25 1098.109375 C 796.921875 1078.300781 795.289062 1058.789062 802.207031 1039.320312 C 809.28125 1019.410156 819.949219 1001.421875 830.171875 983.109375 C 830.988281 981.640625 833.210938 982.53125 832.816406 984.160156 C 832.167969 986.820312 830.851562 989.25 829.660156 991.699219 C 822.679688 1006.089844 815.234375 1020.269531 808.683594 1034.859375 Z M 839.707031 1113.660156 C 843.210938 1121.140625 846.734375 1127.378906 848.566406 1134.550781 C 848.804688 1135.488281 846.710938 1136.539062 846.28125 1135.671875 C 841.1875 1125.269531 840.941406 1122.070312 837.3125 1114.878906 C 836.625 1113.519531 839.058594 1112.28125 839.707031 1113.660156 Z M 835.726562 1076.449219 C 834.390625 1079.519531 829.707031 1077.679688 830.902344 1074.539062 C 843.585938 1041.269531 858.109375 1019.570312 871.769531 1004.078125 C 872.527344 1003.230469 873.890625 1004.128906 873.410156 1005.171875 C 862.15625 1029.5 855.753906 1030.25 835.726562 1076.449219 Z M 862.023438 856.960938 C 866.746094 850.191406 873.367188 846.851562 881.609375 847.71875 C 889.507812 848.558594 893.84375 854.070312 896.835938 860.800781 C 898.691406 864.96875 899.359375 869.410156 899.511719 874.058594 C 898.816406 877.910156 898.40625 881.851562 897.375 885.609375 C 894.304688 896.789062 888.664062 902.578125 881.222656 902.621094 C 871.796875 902.660156 861.191406 894.980469 858.183594 885.890625 C 854.789062 875.628906 855.777344 865.890625 862.023438 856.960938 Z M 913.210938 927.210938 C 914.1875 927.699219 914.664062 928.828125 914.328125 929.871094 C 914.324219 929.878906 914.320312 929.898438 914.3125 929.921875 C 913.898438 931.21875 912.417969 931.828125 911.203125 931.210938 C 887.652344 919.101562 863.753906 908.578125 840.160156 896.601562 C 838.972656 895.988281 838.464844 894.570312 838.996094 893.351562 C 839.003906 893.328125 839.011719 893.308594 839.019531 893.289062 C 839.597656 891.96875 841.160156 891.410156 842.445312 892.050781 C 866.242188 903.878906 889.398438 915.371094 913.210938 927.210938 Z M 748.703125 881.339844 C 750.175781 890.140625 750.0625 890 744.226562 894.609375 C 712.621094 919.558594 681.027344 944.628906 651.765625 972.230469 C 633.214844 989.730469 617.351562 1010.140625 600.855469 1029.730469 C 595.621094 1035.941406 590.636719 1036.238281 584.855469 1033.640625 C 627.574219 970.160156 688.777344 926.640625 748.703125 881.339844 Z M 669.121094 895.070312 C 675.289062 900.578125 679.5 908.28125 684.550781 915.039062 C 687.78125 919.359375 685.15625 921.519531 681.535156 923.449219 C 676.800781 925.960938 677.507812 921.339844 676.597656 919.488281 C 670.140625 906.378906 661.960938 894.480469 652.558594 882.941406 C 660.054688 884.109375 664.136719 890.621094 669.121094 895.070312 Z M 965.613281 621.921875 C 945.09375 621.609375 925.679688 620.679688 907.460938 629.308594 C 918.875 617.410156 956.757812 612.191406 965.613281 621.921875 Z M 503.152344 1196.011719 C 506.570312 1196.859375 507.035156 1199.671875 508.097656 1202.238281 C 512.492188 1212.898438 516.957031 1223.488281 524.160156 1232.71875 C 533.828125 1243.460938 545.785156 1250.53125 560.707031 1245.558594 C 564.734375 1244.21875 567.988281 1241.230469 571.117188 1238.359375 C 572.382812 1237.199219 574.265625 1237.179688 576.679688 1236.769531 C 576.691406 1236.769531 576.703125 1236.761719 576.714844 1236.761719 C 567.628906 1260.558594 527.867188 1263.601562 511.484375 1244.351562 C 500.925781 1231.949219 489.335938 1207.199219 487.984375 1191.75 C 493.117188 1193.210938 498.097656 1194.769531 503.152344 1196.011719 Z M 575.40625 1216.339844 C 562.148438 1226.699219 544.652344 1221.691406 532.320312 1203.660156 C 547.554688 1208.140625 561.1875 1212.160156 575.40625 1216.339844 Z M 584.621094 1221.898438 C 580.507812 1229.101562 572.296875 1232.941406 564.160156 1231.339844 C 559.808594 1230.488281 555.421875 1229.421875 552.605469 1228.191406 C 563.886719 1224.679688 575.253906 1227.921875 584.6875 1221.789062 C 584.664062 1221.828125 584.644531 1221.871094 584.621094 1221.898438 Z M 432.335938 1161.320312 C 431.109375 1166.808594 425.988281 1162.75 422.519531 1162.230469 C 417.851562 1161.53125 413.949219 1160.03125 408.382812 1161.96875 C 399.25 1165.160156 389.164062 1154.429688 389.097656 1143.648438 C 389.035156 1133.558594 395.929688 1124.339844 403.195312 1124.789062 C 410.570312 1125.261719 418.425781 1136.75 415.785156 1146.539062 C 413.308594 1155.710938 418.253906 1155.730469 424.09375 1157.050781 C 427.179688 1157.738281 433.402344 1156.539062 432.335938 1161.320312 Z M 658.964844 622.410156 C 656.894531 622.839844 655.21875 621.96875 653.472656 620.910156 C 645.652344 616.160156 639.902344 603.578125 641.683594 594.570312 C 642.847656 588.691406 648.289062 587.511719 653.539062 584.179688 C 646.941406 601.21875 648.152344 606.421875 660.371094 617.941406 C 661.117188 618.648438 662.171875 619.609375 662.148438 620.429688 C 662.097656 622.25 660.273438 622.140625 658.964844 622.410156 Z M 1330.289062 612.570312 C 1340.128906 618.351562 1339.921875 625.578125 1337.519531 633.308594 C 1334.460938 643.109375 1329.71875 646.71875 1318.859375 646.238281 C 1332.640625 638.101562 1334.738281 626.898438 1330.289062 612.570312 Z M 1575.890625 953.171875 C 1550.589844 904.390625 1517.109375 862.449219 1471.988281 831.03125 C 1483.03125 818.058594 1494.011719 805.171875 1505.820312 791.289062 C 1498.820312 789.300781 1493.109375 787.910156 1487.570312 786.039062 C 1476.398438 782.28125 1464.449219 782.488281 1453.410156 777.269531 C 1389.210938 746.929688 1322.339844 731.480469 1251.039062 743.5 C 1246.261719 744.308594 1244.519531 742.671875 1243.078125 738.738281 C 1236.019531 719.480469 1228.941406 700.21875 1221.589844 681.070312 C 1220.199219 677.449219 1220.699219 675.179688 1222.878906 671.960938 C 1231.550781 659.160156 1236.820312 644.96875 1237.46875 629.398438 C 1237.828125 620.558594 1237.53125 611.699219 1237.53125 602.109375 C 1241.160156 604.148438 1244.558594 605.949219 1247.851562 607.929688 C 1274.109375 623.789062 1300.339844 639.691406 1326.589844 655.570312 C 1333.941406 660.011719 1343.441406 658.839844 1349.371094 652.621094 C 1359.691406 641.78125 1361.308594 622.019531 1344.078125 614.371094 C 1341.011719 613 1338.191406 611.050781 1335.289062 609.328125 C 1310.851562 594.800781 1286.421875 580.25 1261.980469 565.71875 C 1255.121094 561.648438 1247.488281 556.578125 1239.871094 560.089844 C 1227.761719 565.671875 1221.871094 557.570312 1214.859375 551.28125 C 1212.390625 549.058594 1210.78125 545.910156 1208.671875 543.28125 C 1188.171875 517.730469 1162.679688 505.941406 1129.789062 514.941406 C 1126.378906 515.871094 1123.160156 515.511719 1119.789062 514.820312 C 1086.761719 508.101562 1053.671875 501.640625 1020.699219 494.628906 C 1014.949219 493.398438 1013.980469 494.898438 1013.859375 500.011719 C 1013.730469 505.910156 1012.410156 511.78125 1012.289062 517.671875 C 1012.191406 522.238281 1010.640625 522.320312 1006.691406 521.558594 C 972.703125 515.011719 938.550781 509.300781 904.675781 502.238281 C 875.476562 496.160156 847.851562 498.050781 820.988281 511.960938 C 805.53125 519.96875 789.183594 526.269531 773.210938 533.28125 C 770.21875 534.589844 767.546875 536.21875 763.710938 534.558594 C 755.382812 530.96875 747.367188 532.898438 739.351562 536.769531 C 704.886719 553.398438 670.773438 570.898438 635.554688 585.769531 C 616.097656 593.988281 617.492188 618.621094 628.929688 629.171875 C 636.03125 635.71875 642.449219 637.019531 651.21875 632.828125 C 687.78125 615.351562 724.292969 597.761719 760.898438 580.371094 C 767.539062 577.21875 772.96875 573.058594 775.835938 566.21875 C 777.628906 561.941406 780.910156 559.789062 784.898438 558.019531 C 801.617188 550.609375 818.578125 543.671875 834.875 535.429688 C 853.296875 526.109375 872.15625 523.359375 892.222656 527.679688 C 897.726562 528.859375 903.289062 529.769531 908.832031 530.761719 C 930.359375 534.621094 951.890625 538.46875 974.753906 542.558594 C 966.285156 550.121094 959.015625 557.128906 951.152344 563.410156 C 946.558594 567.070312 946.140625 570.410156 948.269531 575.589844 C 952.90625 586.871094 956.914062 598.410156 961.390625 610.398438 C 958.675781 610.398438 956.992188 610.429688 955.3125 610.398438 C 939.101562 610.128906 923.195312 611.46875 908.601562 619.460938 C 904.101562 621.910156 899.347656 624.589844 899.160156 630.429688 C 899.03125 634.511719 897.160156 635.171875 893.722656 636.128906 C 856.953125 646.339844 816.828125 658.839844 786.757812 682.261719 C 786.4375 682.511719 786.113281 682.761719 785.789062 683.011719 C 728.894531 727.351562 706.40625 802.890625 717.132812 874.21875 C 717.460938 876.410156 717.808594 878.628906 718.183594 880.878906 C 719.039062 886.058594 721.34375 893.441406 718.9375 895.300781 C 709.851562 902.300781 700.734375 909.261719 691.628906 916.238281 C 678.230469 895.800781 663.285156 878.511719 641.855469 866.328125 C 609.617188 848.011719 578.113281 847.570312 546.875 866.089844 C 519.785156 882.140625 503.328125 907.929688 489.277344 935.308594 C 487.488281 938.800781 486.070312 942.628906 483.644531 945.628906 C 466.777344 966.488281 455.390625 990.191406 446.816406 1015.390625 C 446.183594 1017.238281 446.113281 1020.171875 443.917969 1019.960938 C 436.605469 1019.289062 439.199219 1023.980469 439.394531 1027.480469 C 439.578125 1030.859375 439.34375 1034.320312 439.996094 1037.601562 C 441.632812 1045.851562 438.535156 1047.980469 430.398438 1047.488281 C 424.660156 1047.148438 424.515625 1043.429688 422.960938 1040.160156 C 418.753906 1031.28125 412.03125 1025.488281 402.035156 1025.578125 C 392.433594 1025.671875 385.382812 1031.179688 381.699219 1039.800781 C 374.929688 1055.648438 374.722656 1071.570312 383.925781 1086.71875 C 388.542969 1094.328125 396.027344 1100.011719 404.34375 1095.859375 C 415.140625 1090.460938 421.464844 1095.949219 428.800781 1101.441406 C 432.402344 1104.140625 436.238281 1106.550781 440.109375 1108.839844 C 441.921875 1109.910156 443.351562 1110.78125 443.210938 1113.230469 C 442.617188 1123.359375 442.300781 1133.511719 441.570312 1143.621094 C 441.199219 1148.710938 436.898438 1150.570312 432.84375 1150.828125 C 428.863281 1151.089844 424.308594 1150.671875 424.40625 1144.261719 C 424.453125 1141 423.136719 1137.628906 421.992188 1134.480469 C 418.167969 1123.921875 409.671875 1118.289062 400.167969 1119.75 C 390.90625 1121.171875 383.320312 1130.609375 382.46875 1141.769531 C 381.429688 1155.289062 384.777344 1160.660156 396.039062 1164.089844 C 401.433594 1165.738281 406.863281 1166.820312 412.484375 1167.511719 C 419.671875 1168.390625 428.164062 1168.28125 433.511719 1172.148438 C 440.664062 1177.328125 447.894531 1180.441406 456.164062 1182.429688 C 458.730469 1183.039062 461.597656 1183.628906 462.238281 1187.941406 C 463.164062 1194.148438 464.179688 1200.328125 465.324219 1206.460938 C 475.019531 1258.269531 491.734375 1306.308594 549.167969 1319.171875 C 571.421875 1324.160156 616.871094 1309.5 631.96875 1294.570312 C 645.695312 1281 656.554688 1265.25 666.226562 1248.640625 C 668.292969 1245.089844 669.777344 1242.789062 675.273438 1244.390625 C 751.089844 1266.5 827.207031 1287.601562 902.835938 1310.328125 C 927.433594 1317.730469 951.96875 1314.601562 976.574219 1315.820312 C 979.933594 1315.980469 980.140625 1314.058594 980.28125 1311.648438 C 980.4375 1309.019531 979.710938 1307.609375 976.859375 1307.671875 C 972.671875 1307.761719 968.488281 1307.859375 964.304688 1307.71875 C 945.382812 1307.109375 926.59375 1308.949219 907.6875 1303.46875 C 786.941406 1268.5 666.039062 1234.070312 545.050781 1199.949219 C 519.117188 1192.640625 493.421875 1184.429688 467.140625 1178.210938 C 459.519531 1176.410156 451.398438 1174.421875 444.136719 1170.71875 C 437.988281 1167.578125 437.15625 1162.660156 438.984375 1156.460938 C 441.03125 1149.53125 445.566406 1152.140625 449.730469 1153.300781 C 521.773438 1173.359375 593.84375 1193.320312 665.832031 1213.578125 C 721.574219 1229.269531 777.214844 1245.328125 832.894531 1261.238281 C 843.128906 1264.171875 853.042969 1264.089844 861.925781 1257.460938 C 874.046875 1248.421875 879.90625 1235.21875 883.144531 1221.238281 C 886.429688 1207.078125 889.585938 1192.910156 893.574219 1178.941406 C 900.027344 1150.988281 906.550781 1123.070312 912.910156 1095.109375 C 915.988281 1081.558594 917.652344 1067.46875 921.433594 1054.371094 C 931.011719 1021.210938 937.964844 987.480469 946.015625 953.988281 C 958.769531 900.929688 970.867188 847.710938 983.40625 794.601562 C 987.429688 777.570312 993.847656 761.570312 1006.019531 746.878906 C 1020.761719 784.058594 1035.308594 820.199219 1049.441406 856.511719 C 1087.480469 954.25 1124.71875 1052.300781 1164.511719 1149.351562 C 1166.308594 1153.761719 1168.441406 1158.050781 1170.640625 1162.289062 C 1173.769531 1168.339844 1179.359375 1170.03125 1185.589844 1169.71875 C 1191.660156 1169.410156 1195.109375 1165.339844 1197.351562 1160.121094 C 1201.671875 1150.039062 1199.441406 1140.328125 1195.789062 1130.589844 C 1177.738281 1082.390625 1159.78125 1034.160156 1141.808594 985.929688 C 1088.78125 843.660156 1035.75 701.378906 982.722656 559.101562 C 981.9375 556.988281 981.058594 554.921875 980.316406 552.789062 C 979.867188 551.511719 979.195312 550.121094 980.570312 548.960938 C 984.144531 545.941406 997.363281 549.328125 998.9375 553.660156 C 1018.300781 607.058594 1037.78125 660.398438 1057 713.851562 C 1101.628906 837.929688 1146.128906 962.050781 1190.660156 1086.171875 C 1196.359375 1102.039062 1202.019531 1117.929688 1207.539062 1133.871094 C 1211.058594 1144.058594 1211.230469 1154.289062 1207.019531 1164.410156 C 1200.128906 1180.980469 1184.019531 1184.378906 1170.960938 1172.058594 C 1166.308594 1167.671875 1163.660156 1162.089844 1161.238281 1156.378906 C 1109.089844 1033.378906 1057.390625 910.191406 1007.699219 786.160156 C 1006.570312 783.339844 1005.351562 780.550781 1003.71875 776.679688 C 997.757812 785.449219 995.671875 794.570312 993.566406 803.601562 C 963.050781 934.460938 932.613281 1065.328125 902.136719 1196.199219 C 901.628906 1198.378906 900.84375 1200.5 900.191406 1202.648438 C 899.605469 1205.460938 899.023438 1208.269531 898.441406 1211.078125 C 897.925781 1213.910156 897.410156 1216.738281 896.894531 1219.570312 C 896.785156 1224.921875 896.601562 1230.28125 896.574219 1235.628906 C 896.484375 1252.480469 898.871094 1268.769531 907.507812 1283.640625 C 913.664062 1294.230469 922.074219 1300.019531 935.101562 1299.238281 C 958.457031 1297.851562 981.886719 1297.679688 1005.25 1296.300781 C 1012.03125 1295.898438 1014.859375 1297.578125 1017.078125 1304.148438 C 1021.199219 1316.359375 1025.871094 1328.328125 1031.070312 1340.03125 C 1063.601562 1413.328125 1125.558594 1469.71875 1202.21875 1493.25 C 1260.359375 1511.089844 1315.679688 1508.050781 1364.140625 1495.550781 C 1502.390625 1459.890625 1603.261719 1341.621094 1619.839844 1199.820312 C 1621.199219 1188.191406 1622.140625 1176.570312 1622.699219 1165.03125 C 1626.308594 1090.410156 1610.339844 1019.589844 1575.890625 953.171875 "/>
<path fill-rule="nonzero" fill="rgb(6.266785%, 5.734253%, 5.047607%)" fill-opacity="1" d="M 644.421875 1124.558594 C 640.886719 1124.558594 638.007812 1128.101562 638.007812 1132.460938 C 638.007812 1136.820312 640.886719 1140.371094 644.421875 1140.371094 C 647.960938 1140.371094 650.839844 1136.820312 650.839844 1132.460938 C 650.839844 1128.101562 647.960938 1124.558594 644.421875 1124.558594 "/>
</svg>
